Exo-Bold.ufo
<glyph name="quotesingle" format="2">
  <advance width="256"/>
  <unicode hex="0027"/>
  <note>
GF Latin Plus glyph
</note>
  <outline>
    <contour>
      <point x="42" y="491" type="line"/>
      <point x="206" y="491" type="line"/>
      <point x="216" y="692" type="line"/>
      <point x="216" y="759" type="line"/>
      <point x="31" y="759" type="line"/>
      <point x="31" y="692" type="line"/>
    </contour>
  </outline>
</glyph>
<glyph name="zero" format="2">
  <advance width="641"/>
  <unicode hex="0030"/>
  <note>
GF Latin Plus glyph
</note>
  <outline>
    <contour>
      <point x="243" y="-6" type="curve" smooth="yes"/>
      <point x="405" y="-6" type="line" smooth="yes"/>
      <point x="531" y="-6"/>
      <point x="601" y="71"/>
      <point x="601" y="196" type="curve" smooth="yes"/>
      <point x="601" y="537" type="line" smooth="yes"/>
      <point x="601" y="674"/>
      <point x="532" y="749"/>
      <point x="406" y="749" type="curve" smooth="yes"/>
      <point x="244" y="749" type="line" smooth="yes"/>
      <point x="113" y="749"/>
      <point x="40" y="674"/>
      <point x="40" y="537" type="curve" smooth="yes"/>
      <point x="40" y="196" type="line" smooth="yes"/>
      <point x="40" y="69"/>
      <point x="106" y="-6"/>
    </contour>
    <contour>
      <point x="291" y="168" type="line" smooth="yes"/>
      <point x="252" y="168"/>
      <point x="234" y="184"/>
      <point x="234" y="227" type="curve" smooth="yes"/>
      <point x="234" y="517" type="line" smooth="yes"/>
      <point x="234" y="557"/>
      <point x="249" y="575"/>
      <point x="284" y="575" type="curve" smooth="yes"/>
      <point x="359" y="575" type="line" smooth="yes"/>
      <point x="386" y="575"/>
      <point x="407" y="564"/>
      <point x="407" y="517" type="curve" smooth="yes"/>
      <point x="407" y="226" type="line" smooth="yes"/>
      <point x="407" y="184"/>
      <point x="387" y="168"/>
      <point x="351" y="168" type="curve" smooth="yes"/>
    </contour>
  </outline>
</glyph>
<glyph name="two" format="2">
  <advance width="582"/>
  <unicode hex="0032"/>
  <note>
GF Latin Plus glyph
</note>
  <outline>
    <contour>
      <point x="40" y="0" type="line"/>
      <point x="554" y="0" type="line"/>
      <point x="554" y="174" type="line"/>
      <point x="296" y="174" type="line"/>
      <point x="424" y="305" type="line" smooth="yes"/>
      <point x="493" y="375"/>
      <point x="534" y="441"/>
      <point x="534" y="539" type="curve" smooth="yes"/>
      <point x="534" y="675"/>
      <point x="478" y="749"/>
      <point x="302" y="749" type="curve" smooth="yes"/>
      <point x="195" y="749"/>
      <point x="117" y="733"/>
      <point x="52" y="719" type="curve"/>
      <point x="52" y="565" type="line"/>
      <point x="265" y="565" type="line" smooth="yes"/>
      <point x="316" y="565"/>
      <point x="340" y="547"/>
      <point x="340" y="505" type="curve" smooth="yes"/>
      <point x="340" y="467"/>
      <point x="314" y="433"/>
      <point x="271" y="390" type="curve" smooth="yes"/>
      <point x="40" y="154" type="line"/>
    </contour>
  </outline>
</glyph>
<glyph name="D" format="2">
  <advance width="688"/>
  <unicode hex="0044"/>
  <note>
GF Latin Plus glyph
</note>
  <anchor x="290" y="-150" name="bottom"/>
  <anchor x="334" y="810" name="top"/>
  <outline>
    <contour>
      <point x="55" y="0" type="line"/>
      <point x="383" y="0" type="line" smooth="yes"/>
      <point x="564" y="0"/>
      <point x="652" y="109.591"/>
      <point x="652" y="371" type="curve" smooth="yes"/>
      <point x="652" y="579.683"/>
      <point x="598" y="743"/>
      <point x="383" y="743" type="curve" smooth="yes"/>
      <point x="55" y="743" type="line"/>
    </contour>
    <contour>
      <point x="249" y="174" type="line"/>
      <point x="249" y="569" type="line"/>
      <point x="363" y="569" type="line" smooth="yes"/>
      <point x="422" y="569"/>
      <point x="458" y="546.662"/>
      <point x="458" y="371" type="curve" smooth="yes"/>
      <point x="458" y="231.585"/>
      <point x="436" y="174"/>
      <point x="363" y="174" type="curve" smooth="yes"/>
    </contour>
  </outline>
</glyph>
<glyph name="I" format="2">
  <advance width="304"/>
  <unicode hex="0049"/>
  <note>
GF Latin Plus glyph
</note>
  <anchor x="152" y="-150" name="bottom"/>
  <anchor x="239" y="0" name="ogonek"/>
  <anchor x="152" y="810" name="top"/>
  <outline>
    <contour>
      <point x="55" y="0" type="line"/>
      <point x="249" y="0" type="line"/>
      <point x="249" y="743" type="line"/>
      <point x="55" y="743" type="line"/>
    </contour>
  </outline>
</glyph>
<glyph name="X" format="2">
  <advance width="690"/>
  <unicode hex="0058"/>
  <note>
GF Latin Plus glyph
</note>
  <anchor x="317" y="-150" name="bottom"/>
  <anchor x="317" y="810" name="top"/>
  <outline>
    <contour>
      <point x="466" y="0" type="line"/>
      <point x="680" y="0" type="line"/>
      <point x="219" y="743" type="line"/>
      <point x="5" y="743" type="line"/>
    </contour>
    <contour>
      <point x="8" y="0" type="line"/>
      <point x="222" y="0" type="line"/>
      <point x="361" y="254" type="line"/>
      <point x="261" y="417" type="line"/>
    </contour>
    <contour>
      <point x="426" y="318" type="line"/>
      <point x="685" y="743" type="line"/>
      <point x="471" y="743" type="line"/>
      <point x="327" y="478" type="line"/>
    </contour>
  </outline>
</glyph>
<glyph name="Y" format="2">
  <advance width="634"/>
  <unicode hex="0059"/>
  <note>
GF Latin Plus glyph
</note>
  <anchor x="321" y="-150" name="bottom"/>
  <anchor x="321" y="810" name="top"/>
  <outline>
    <contour>
      <point x="220" y="0" type="line"/>
      <point x="414" y="0" type="line"/>
      <point x="414" y="211" type="line"/>
      <point x="629" y="743" type="line"/>
      <point x="436" y="743" type="line"/>
      <point x="321" y="409" type="line"/>
      <point x="206" y="743" type="line"/>
      <point x="5" y="743" type="line"/>
      <point x="220" y="211" type="line"/>
    </contour>
  </outline>
</glyph>
<glyph name="f" format="2">
  <advance width="409"/>
  <unicode hex="0066"/>
  <note>
GF Latin Plus glyph
</note>
  <anchor x="280" y="880" name="top"/>
  <outline>
    <contour>
      <point x="87" y="0" type="line"/>
      <point x="281" y="0" type="line"/>
      <point x="281" y="385" type="line"/>
      <point x="399" y="385" type="line"/>
      <point x="399" y="539" type="line"/>
      <point x="281" y="539" type="line"/>
      <point x="281" y="569" type="line" smooth="yes"/>
      <point x="281" y="602"/>
      <point x="294" y="612"/>
      <point x="322" y="612" type="curve" smooth="yes"/>
      <point x="399" y="612" type="line"/>
      <point x="399" y="751" type="line"/>
      <point x="375" y="759"/>
      <point x="328" y="769"/>
      <point x="282" y="769" type="curve" smooth="yes"/>
      <point x="148" y="769"/>
      <point x="87" y="710"/>
      <point x="87" y="558" type="curve" smooth="yes"/>
      <point x="87" y="539" type="line"/>
      <point x="15" y="509" type="line"/>
      <point x="15" y="385" type="line"/>
      <point x="87" y="385" type="line"/>
    </contour>
  </outline>
</glyph>
<glyph name="n" format="2">
  <advance width="600"/>
  <unicode hex="006E"/>
  <note>
GF Latin Plus glyph
</note>
  <anchor x="300" y="-150" name="bottom"/>
  <anchor x="300" y="650" name="top"/>
  <outline>
    <contour>
      <point x="44" y="0" type="line"/>
      <point x="238" y="0" type="line"/>
      <point x="238" y="343" type="line"/>
      <point x="255" y="360"/>
      <point x="284" y="374"/>
      <point x="311" y="374" type="curve" smooth="yes"/>
      <point x="342" y="374"/>
      <point x="364" y="363"/>
      <point x="364" y="322" type="curve" smooth="yes"/>
      <point x="364" y="0" type="line"/>
      <point x="558" y="0" type="line"/>
      <point x="558" y="348" type="line" smooth="yes"/>
      <point x="558" y="460"/>
      <point x="530" y="548"/>
      <point x="390" y="548" type="curve" smooth="yes"/>
      <point x="333" y="548"/>
      <point x="271" y="517"/>
      <point x="238" y="487" type="curve"/>
      <point x="206" y="539" type="line"/>
      <point x="44" y="539" type="line"/>
    </contour>
  </outline>
</glyph>
<glyph name="x" format="2">
  <advance width="564"/>
  <unicode hex="0078"/>
  <note>
GF Latin Plus glyph
</note>
  <outline>
    <contour>
      <point x="369" y="0" type="line"/>
      <point x="564" y="0" type="line"/>
      <point x="195" y="539" type="line"/>
      <point x="0" y="539" type="line"/>
    </contour>
    <contour>
      <point x="0" y="0" type="line"/>
      <point x="196" y="0" type="line"/>
      <point x="281" y="148" type="line"/>
      <point x="212" y="332" type="line"/>
    </contour>
    <contour>
      <point x="352" y="205" type="line"/>
      <point x="564" y="539" type="line"/>
      <point x="368" y="539" type="line"/>
      <point x="271" y="369" type="line"/>
    </contour>
  </outline>
</glyph>
<glyph name="germandbls" format="2">
  <advance width="620"/>
  <unicode hex="00DF"/>
  <note>
GF Latin Plus glyph
</note>
  <outline>
    <contour>
      <point x="411" y="-6" type="curve" smooth="yes"/>
      <point x="481" y="-6"/>
      <point x="604" y="24"/>
      <point x="604" y="152" type="curve" smooth="yes"/>
      <point x="604" y="179" type="line" smooth="yes"/>
      <point x="604" y="298"/>
      <point x="485" y="332"/>
      <point x="485" y="370" type="curve" smooth="yes"/>
      <point x="485" y="399.765"/>
      <point x="560" y="455.686"/>
      <point x="560" y="554" type="curve" smooth="yes"/>
      <point x="560" y="678"/>
      <point x="486" y="764"/>
      <point x="307" y="764" type="curve" smooth="yes"/>
      <point x="115" y="764"/>
      <point x="34" y="662"/>
      <point x="34" y="527" type="curve" smooth="yes"/>
      <point x="34" y="0" type="line"/>
      <point x="228" y="0" type="line"/>
      <point x="228" y="506" type="line" smooth="yes"/>
      <point x="228" y="581"/>
      <point x="246" y="610"/>
      <point x="306" y="610" type="curve" smooth="yes"/>
      <point x="350" y="610"/>
      <point x="376" y="596"/>
      <point x="376" y="542" type="curve" smooth="yes"/>
      <point x="376" y="482.677"/>
      <point x="301" y="425.179"/>
      <point x="301" y="333" type="curve" smooth="yes"/>
      <point x="301" y="225"/>
      <point x="420" y="194"/>
      <point x="420" y="162" type="curve" smooth="yes"/>
      <point x="420" y="156" type="line" smooth="yes"/>
      <point x="420" y="146"/>
      <point x="402" y="138"/>
      <point x="359" y="138" type="curve" smooth="yes"/>
      <point x="330" y="138"/>
      <point x="298" y="139"/>
      <point x="270" y="141" type="curve"/>
      <point x="270" y="10" type="line"/>
      <point x="300.045" y="-0.015"/>
      <point x="354" y="-6"/>
    </contour>
  </outline>
</glyph>
<glyph name="ringhalfleft" format="2">
  <advance width="212"/>
  <unicode hex="02BF"/>
  <outline>
    <contour>
      <point x="187" y="580" type="curve"/>
      <point x="187" y="659" type="line"/>
      <point x="149.875" y="659"/>
      <point x="133" y="669"/>
      <point x="133" y="697" type="curve" smooth="yes"/>
      <point x="133" y="726"/>
      <point x="149.875" y="736"/>
      <point x="187" y="736" type="curve"/>
      <point x="187" y="815" type="line"/>
      <point x="89" y="815"/>
      <point x="35" y="785"/>
      <point x="35" y="697" type="curve" smooth="yes"/>
      <point x="35" y="609"/>
      <point x="89" y="580"/>
    </contour>
  </outline>
</glyph>
<glyph name="caron" format="2">
  <advance width="378"/>
  <unicode hex="02C7"/>
  <note>
GF Latin Plus glyph
</note>
  <outline>
    <contour>
      <point x="119" y="631" type="line"/>
      <point x="250" y="631" type="line"/>
      <point x="350" y="777" type="line"/>
      <point x="238" y="777" type="line"/>
      <point x="188" y="716" type="line"/>
      <point x="139" y="777" type="line"/>
      <point x="28" y="777" type="line"/>
    </contour>
  </outline>
</glyph>
<glyph name="endash" format="2">
  <advance width="513"/>
  <unicode hex="2013"/>
  <note>
GF Latin Plus glyph
</note>
  <outline>
    <contour>
      <point x="20" y="212" type="line"/>
      <point x="493" y="212" type="line"/>
      <point x="493" y="367" type="line"/>
      <point x="20" y="367" type="line"/>
    </contour>
  </outline>
</glyph>
<glyph name="emdash" format="2">
  <advance width="736"/>
  <unicode hex="2014"/>
  <note>
GF Latin Plus glyph
</note>
  <outline>
    <contour>
      <point x="20" y="212" type="line"/>
      <point x="716" y="212" type="line"/>
      <point x="716" y="367" type="line"/>
      <point x="20" y="367" type="line"/>
    </contour>
  </outline>
</glyph>
<glyph name="quoteleft" format="2">
  <advance width="250"/>
  <unicode hex="2018"/>
  <note>
GF Latin Plus glyph
</note>
  <outline>
    <contour>
      <point x="69" y="480" type="curve" smooth="yes"/>
      <point x="190" y="480" type="line" smooth="yes"/>
      <point x="206" y="480"/>
      <point x="215" y="489"/>
      <point x="215" y="507" type="curve" smooth="yes"/>
      <point x="215" y="621" type="line" smooth="yes"/>
      <point x="215" y="638"/>
      <point x="204" y="646"/>
      <point x="190" y="646" type="curve" smooth="yes"/>
      <point x="179" y="646" type="line"/>
      <point x="179" y="661" type="line" smooth="yes"/>
      <point x="179" y="671"/>
      <point x="180" y="692"/>
      <point x="210" y="692" type="curve"/>
      <point x="210" y="764" type="line"/>
      <point x="203" y="766"/>
      <point x="191" y="768"/>
      <point x="167" y="768" type="curve" smooth="yes"/>
      <point x="116.893" y="768"/>
      <point x="45" y="753"/>
      <point x="45" y="667" type="curve" smooth="yes"/>
      <point x="45" y="507" type="line" smooth="yes"/>
      <point x="45" y="492"/>
      <point x="51" y="480"/>
    </contour>
  </outline>
</glyph>
<glyph name="dagger" format="2">
  <advance width="486"/>
  <unicode hex="2020"/>
  <note>
GF Latin Plus glyph
</note>
  <outline>
    <contour>
      <point x="156" y="-72" type="line"/>
      <point x="329" y="-72" type="line"/>
      <point x="343" y="409" type="line"/>
      <point x="475" y="424" type="line"/>
      <point x="475" y="573" type="line"/>
      <point x="343" y="588" type="line"/>
      <point x="330" y="770" type="line"/>
      <point x="157" y="770" type="line"/>
      <point x="144" y="588" type="line"/>
      <point x="11" y="573" type="line"/>
      <point x="11" y="424" type="line"/>
      <point x="144" y="409" type="line"/>
    </contour>
  </outline>
</glyph>
<glyph name="ellipsis" format="2">
  <advance width="816"/>
  <unicode hex="2026"/>
  <note>
GF Latin Plus glyph
</note>
  <outline>
    <contour>
      <point x="623" y="0" type="curve" smooth="yes"/>
      <point x="736" y="0" type="line" smooth="yes"/>
      <point x="750" y="0"/>
      <point x="761" y="5"/>
      <point x="761" y="23" type="curve" smooth="yes"/>
      <point x="761" y="140" type="line" smooth="yes"/>
      <point x="761" y="156"/>
      <point x="754" y="165"/>
      <point x="736" y="165" type="curve" smooth="yes"/>
      <point x="623" y="165" type="line" smooth="yes"/>
      <point x="607" y="165"/>
      <point x="599" y="155"/>
      <point x="599" y="140" type="curve" smooth="yes"/>
      <point x="599" y="23" type="line" smooth="yes"/>
      <point x="599" y="9"/>
      <point x="609" y="0"/>
    </contour>
    <contour>
      <point x="79" y="0" type="curve" smooth="yes"/>
      <point x="192" y="0" type="line" smooth="yes"/>
      <point x="206" y="0"/>
      <point x="217" y="5"/>
      <point x="217" y="23" type="curve" smooth="yes"/>
      <point x="217" y="140" type="line" smooth="yes"/>
      <point x="217" y="156"/>
      <point x="210" y="165"/>
      <point x="192" y="165" type="curve" smooth="yes"/>
      <point x="79" y="165" type="line" smooth="yes"/>
      <point x="63" y="165"/>
      <point x="55" y="155"/>
      <point x="55" y="140" type="curve" smooth="yes"/>
      <point x="55" y="23" type="line" smooth="yes"/>
      <point x="55" y="9"/>
      <point x="65" y="0"/>
    </contour>
    <contour>
      <point x="351" y="0" type="curve" smooth="yes"/>
      <point x="464" y="0" type="line" smooth="yes"/>
      <point x="478" y="0"/>
      <point x="489" y="5"/>
      <point x="489" y="23" type="curve" smooth="yes"/>
      <point x="489" y="140" type="line" smooth="yes"/>
      <point x="489" y="156"/>
      <point x="482" y="165"/>
      <point x="464" y="165" type="curve" smooth="yes"/>
      <point x="351" y="165" type="line" smooth="yes"/>
      <point x="335" y="165"/>
      <point x="327" y="155"/>
      <point x="327" y="140" type="curve" smooth="yes"/>
      <point x="327" y="23" type="line" smooth="yes"/>
      <point x="327" y="9"/>
      <point x="337" y="0"/>
    </contour>
  </outline>
</glyph>
<glyph name="zerosuperior" format="2">
  <advance width="450"/>
  <unicode hex="2070"/>
  <note>

</note>
  <outline>
    <contour>
      <point x="194" y="427"/>
      <point x="194" y="452" type="curve" smooth="yes"/>
      <point x="194" y="647" type="line" smooth="yes"/>
      <point x="194" y="672"/>
      <point x="206" y="677"/>
      <point x="216" y="677" type="curve" smooth="yes"/>
      <point x="234" y="677" type="line" smooth="yes"/>
      <point x="244" y="677"/>
      <point x="256" y="672"/>
      <point x="256" y="647" type="curve" smooth="yes"/>
      <point x="256" y="452" type="line" smooth="yes"/>
      <point x="256" y="427"/>
      <point x="244" y="422"/>
      <point x="234" y="422" type="curve" smooth="yes"/>
      <point x="216" y="422" type="line" smooth="yes"/>
      <point x="206" y="422"/>
    </contour>
    <contour>
      <point x="24" y="664" type="curve" smooth="yes"/>
      <point x="24" y="427" type="line" smooth="yes"/>
      <point x="24" y="334"/>
      <point x="70" y="275"/>
      <point x="179" y="275" type="curve" smooth="yes"/>
      <point x="277" y="275" type="line" smooth="yes"/>
      <point x="374" y="275"/>
      <point x="426" y="335"/>
      <point x="426" y="427" type="curve" smooth="yes"/>
      <point x="426" y="664" type="line" smooth="yes"/>
      <point x="426" y="769"/>
      <point x="371" y="824"/>
      <point x="278" y="824" type="curve" smooth="yes"/>
      <point x="180" y="824" type="line" smooth="yes"/>
      <point x="77" y="824"/>
      <point x="24" y="767"/>
    </contour>
  </outline>
</glyph>
<glyph name="peseta" format="2">
  <advance width="609"/>
  <unicode hex="20A7"/>
  <note>
GF Latin Plus glyph
</note>
  <outline>
    <contour>
      <point x="55" y="0" type="line"/>
      <point x="249" y="0" type="line"/>
      <point x="249" y="164" type="line"/>
      <point x="276.452" y="158.51"/>
      <point x="305.513" y="144"/>
      <point x="352" y="144" type="curve" smooth="yes"/>
      <point x="442.581" y="144"/>
      <point x="557" y="180"/>
      <point x="557" y="447" type="curve" smooth="yes"/>
      <point x="557" y="712"/>
      <point x="438.487" y="743"/>
      <point x="341" y="743" type="curve" smooth="yes"/>
      <point x="55" y="743" type="line"/>
    </contour>
    <contour>
      <point x="10" y="391" type="line"/>
      <point x="177" y="391" type="line"/>
      <point x="177" y="485" type="line"/>
      <point x="10" y="485" type="line"/>
    </contour>
    <contour>
      <point x="249" y="318" type="line"/>
      <point x="249" y="569" type="line"/>
      <point x="321" y="569" type="line" smooth="yes"/>
      <point x="350.885" y="569"/>
      <point x="363" y="527"/>
      <point x="363" y="445" type="curve" smooth="yes"/>
      <point x="363" y="361"/>
      <point x="353.308" y="318"/>
      <point x="321" y="318" type="curve" smooth="yes"/>
    </contour>
    <contour>
      <point x="188" y="391" type="line"/>
      <point x="599" y="391" type="line"/>
      <point x="599" y="485" type="line"/>
      <point x="188" y="485" type="line"/>
    </contour>
  </outline>
</glyph>
<glyph name="guarani" format="2">
  <advance width="609"/>
  <unicode hex="20B2"/>
  <note>
GF Latin Plus glyph
</note>
  <outline>
    <contour>
      <point x="239" y="-5" type="curve" smooth="yes"/>
      <point x="327.444" y="-5"/>
      <point x="404.771" y="26.155"/>
      <point x="438" y="49" type="curve"/>
      <point x="464" y="0" type="line"/>
      <point x="590" y="0" type="line"/>
      <point x="590" y="441" type="line"/>
      <point x="416" y="441" type="line"/>
      <point x="416" y="183" type="line"/>
      <point x="396.29" y="178.62"/>
      <point x="354.51" y="173"/>
      <point x="304" y="173" type="curve" smooth="yes"/>
      <point x="222" y="173"/>
      <point x="190" y="205"/>
      <point x="190" y="370" type="curve" smooth="yes"/>
      <point x="190" y="532"/>
      <point x="208" y="576"/>
      <point x="342" y="576" type="curve" smooth="yes"/>
      <point x="436" y="576"/>
      <point x="518" y="569"/>
      <point x="563" y="562" type="curve"/>
      <point x="563" y="713" type="line"/>
      <point x="482" y="735"/>
      <point x="423" y="750"/>
      <point x="305" y="750" type="curve" smooth="yes"/>
      <point x="62" y="750"/>
      <point x="16" y="599"/>
      <point x="16" y="370" type="curve" smooth="yes"/>
      <point x="16" y="164"/>
      <point x="56" y="-5"/>
    </contour>
    <contour>
      <point x="281" y="-80" type="line"/>
      <point x="364" y="-80" type="line"/>
      <point x="364" y="793" type="line"/>
      <point x="281" y="793" type="line"/>
    </contour>
  </outline>
</glyph>
<glyph name="trademark" format="2">
  <advance width="716"/>
  <unicode hex="2122"/>
  <note>
GF Latin Plus glyph
</note>
  <outline>
    <contour>
      <point x="309" y="383" type="line"/>
      <point x="423" y="383" type="line"/>
      <point x="442" y="551" type="line"/>
      <point x="468" y="383" type="line"/>
      <point x="551" y="383" type="line"/>
      <point x="578" y="553" type="line"/>
      <point x="594" y="383" type="line"/>
      <point x="708" y="383" type="line"/>
      <point x="657" y="732" type="line"/>
      <point x="534" y="732" type="line"/>
      <point x="512" y="553" type="line"/>
      <point x="479" y="732" type="line"/>
      <point x="356" y="732" type="line"/>
    </contour>
    <contour>
      <point x="104" y="383" type="line"/>
      <point x="218" y="383" type="line"/>
      <point x="218" y="638" type="line"/>
      <point x="310" y="638" type="line"/>
      <point x="310" y="732" type="line"/>
      <point x="11" y="732" type="line"/>
      <point x="11" y="638" type="line"/>
      <point x="104" y="638" type="line"/>
    </contour>
  </outline>
</glyph>
<glyph name="integral" format="2">
  <advance width="443"/>
  <unicode hex="222B"/>
  <note>

</note>
  <outline>
    <contour>
      <point x="51" y="-60" type="curve" smooth="yes"/>
      <point x="11" y="-60" type="line"/>
      <point x="11" y="-179" type="line"/>
      <point x="32" y="-192"/>
      <point x="79" y="-204"/>
      <point x="117" y="-204" type="curve" smooth="yes"/>
      <point x="272" y="-204"/>
      <point x="318" y="-88"/>
      <point x="318" y="53" type="curve" smooth="yes"/>
      <point x="318" y="563" type="line" smooth="yes"/>
      <point x="318" y="613"/>
      <point x="335" y="656"/>
      <point x="394" y="656" type="curve" smooth="yes"/>
      <point x="432" y="656" type="line"/>
      <point x="432" y="775" type="line"/>
      <point x="414" y="782"/>
      <point x="385" y="800"/>
      <point x="313" y="800" type="curve" smooth="yes"/>
      <point x="176" y="800"/>
      <point x="124" y="694"/>
      <point x="124" y="572" type="curve" smooth="yes"/>
      <point x="124" y="38" type="line" smooth="yes"/>
      <point x="124" y="-32"/>
      <point x="101" y="-60"/>
    </contour>
  </outline>
</glyph>
<glyph name="M.salt" format="2">
  <advance width="906"/>
  <note>

</note>
  <anchor x="447" y="-150" name="bottom"/>
  <anchor x="447" y="810" name="top"/>
  <outline>
    <contour>
      <point x="65" y="591" type="curve" smooth="yes"/>
      <point x="35" y="0" type="line"/>
      <point x="222" y="0" type="line"/>
      <point x="247" y="541" type="line" smooth="yes"/>
      <point x="248" y="561"/>
      <point x="253" y="566"/>
      <point x="262" y="566" type="curve" smooth="yes"/>
      <point x="269" y="566"/>
      <point x="272" y="562"/>
      <point x="274" y="548" type="curve" smooth="yes"/>
      <point x="317" y="253" type="line" smooth="yes"/>
      <point x="331" y="157"/>
      <point x="393" y="127"/>
      <point x="457" y="127" type="curve" smooth="yes"/>
      <point x="521" y="127"/>
      <point x="584" y="157"/>
      <point x="598" y="253" type="curve" smooth="yes"/>
      <point x="642" y="546" type="line" smooth="yes"/>
      <point x="645" y="563"/>
      <point x="649" y="567"/>
      <point x="655" y="567" type="curve" smooth="yes"/>
      <point x="663" y="567"/>
      <point x="667" y="563"/>
      <point x="668" y="546" type="curve" smooth="yes"/>
      <point x="693" y="0" type="line"/>
      <point x="880" y="0" type="line"/>
      <point x="848" y="593" type="line" smooth="yes"/>
      <point x="840.976" y="723.163"/>
      <point x="761" y="759"/>
      <point x="678" y="759" type="curve" smooth="yes"/>
      <point x="593" y="759"/>
      <point x="524" y="729"/>
      <point x="507" y="594" type="curve" smooth="yes"/>
      <point x="477" y="355" type="line" smooth="yes"/>
      <point x="475" y="337"/>
      <point x="468" y="331"/>
      <point x="459" y="331" type="curve" smooth="yes"/>
      <point x="451" y="331"/>
      <point x="444" y="336"/>
      <point x="441" y="355" type="curve" smooth="yes"/>
      <point x="409" y="594" type="line" smooth="yes"/>
      <point x="391" y="725"/>
      <point x="326" y="760"/>
      <point x="239" y="760" type="curve" smooth="yes"/>
      <point x="155" y="760"/>
      <point x="71.709" y="723.176"/>
    </contour>
  </outline>
</glyph>
<glyph name="a.salt" format="2">
  <advance width="542"/>
  <note>

</note>
  <anchor x="270" y="-150" name="bottom"/>
  <anchor x="311" y="0" name="ogonek"/>
  <anchor x="270" y="650" name="top"/>
  <outline>
    <contour>
      <point x="220" y="135.514"/>
      <point x="220" y="163" type="curve" smooth="yes"/>
      <point x="220" y="183" type="line" smooth="yes"/>
      <point x="220" y="212"/>
      <point x="240.022" y="224.589"/>
      <point x="277" y="230" type="curve" smooth="yes"/>
      <point x="318" y="236" type="line"/>
      <point x="318" y="139" type="line"/>
      <point x="308.424" y="134.212"/>
      <point x="285" y="126"/>
      <point x="267" y="126" type="curve" smooth="yes"/>
      <point x="237" y="126"/>
    </contour>
    <contour>
      <point x="26" y="186" type="curve" smooth="yes"/>
      <point x="26" y="131" type="line" smooth="yes"/>
      <point x="26" y="47"/>
      <point x="87" y="-6"/>
      <point x="216" y="-6" type="curve" smooth="yes"/>
      <point x="245" y="-6" type="line" smooth="yes"/>
      <point x="349" y="-6"/>
      <point x="454" y="29"/>
      <point x="512" y="67" type="curve"/>
      <point x="512" y="357" type="line" smooth="yes"/>
      <point x="512" y="509"/>
      <point x="424" y="545"/>
      <point x="288" y="545" type="curve" smooth="yes"/>
      <point x="183" y="545"/>
      <point x="114" y="528"/>
      <point x="58" y="506" type="curve"/>
      <point x="58" y="395" type="line"/>
      <point x="215" y="395" type="line" smooth="yes"/>
      <point x="306" y="395"/>
      <point x="318" y="383"/>
      <point x="318" y="343" type="curve" smooth="yes"/>
      <point x="318" y="326" type="line"/>
      <point x="210" y="326" type="line" smooth="yes"/>
      <point x="82" y="326"/>
      <point x="26" y="266"/>
    </contour>
  </outline>
</glyph>
<glyph name="dblgravecomb.case" format="2">
  <note>
GF Latin Plus glyph
</note>
  <anchor x="-320" y="810" name="_top"/>
  <outline>
    <contour>
      <point x="-261" y="791" type="line"/>
      <point x="-147" y="791" type="line"/>
      <point x="-215" y="934" type="line"/>
      <point x="-369" y="934" type="line"/>
    </contour>
    <contour>
      <point x="-461" y="791" type="line"/>
      <point x="-347" y="791" type="line"/>
      <point x="-415" y="934" type="line"/>
      <point x="-569" y="934" type="line"/>
    </contour>
  </outline>
</glyph>
<glyph name="eight.tosf" format="2">
  <advance width="609"/>
  <note>

</note>
  <outline>
    <contour>
      <point x="258" y="-6" type="curve" smooth="yes"/>
      <point x="373" y="-6" type="line" smooth="yes"/>
      <point x="475" y="-6"/>
      <point x="566" y="19"/>
      <point x="566" y="165" type="curve" smooth="yes"/>
      <point x="566" y="264" type="line" smooth="yes"/>
      <point x="566" y="301"/>
      <point x="560" y="377"/>
      <point x="491" y="394" type="curve"/>
      <point x="544" y="401"/>
      <point x="551" y="483"/>
      <point x="551" y="510" type="curve" smooth="yes"/>
      <point x="551" y="594" type="line" smooth="yes"/>
      <point x="551" y="708"/>
      <point x="465" y="749"/>
      <point x="370" y="749" type="curve" smooth="yes"/>
      <point x="248" y="749" type="line" smooth="yes"/>
      <point x="153" y="749"/>
      <point x="67" y="708"/>
      <point x="67" y="594" type="curve" smooth="yes"/>
      <point x="67" y="510" type="line" smooth="yes"/>
      <point x="67" y="457"/>
      <point x="66" y="412"/>
      <point x="126" y="380" type="curve"/>
      <point x="70" y="367"/>
      <point x="52" y="311"/>
      <point x="52" y="264" type="curve" smooth="yes"/>
      <point x="52" y="165" type="line" smooth="yes"/>
      <point x="52" y="19"/>
      <point x="156" y="-6"/>
    </contour>
    <contour>
      <point x="295" y="158" type="line" smooth="yes"/>
      <point x="260" y="158"/>
      <point x="246" y="169"/>
      <point x="246" y="204" type="curve" smooth="yes"/>
      <point x="246" y="251" type="line" smooth="yes"/>
      <point x="246" y="278"/>
      <point x="263" y="298"/>
      <point x="295" y="298" type="curve" smooth="yes"/>
      <point x="325" y="298" type="line" smooth="yes"/>
      <point x="354" y="298"/>
      <point x="372" y="277"/>
      <point x="372" y="251" type="curve" smooth="yes"/>
      <point x="372" y="204" type="line" smooth="yes"/>
      <point x="372" y="176"/>
      <point x="367" y="158"/>
      <point x="323" y="158" type="curve" smooth="yes"/>
    </contour>
    <contour>
      <point x="295" y="462" type="line" smooth="yes"/>
      <point x="268" y="462"/>
      <point x="256" y="467"/>
      <point x="256" y="515" type="curve" smooth="yes"/>
      <point x="256" y="546" type="line" smooth="yes"/>
      <point x="256" y="583"/>
      <point x="271" y="585"/>
      <point x="295" y="585" type="curve" smooth="yes"/>
      <point x="323" y="585" type="line" smooth="yes"/>
      <point x="342" y="585"/>
      <point x="362" y="584"/>
      <point x="362" y="546" type="curve" smooth="yes"/>
      <point x="362" y="515" type="line" smooth="yes"/>
      <point x="362" y="478"/>
      <point x="358" y="462"/>
      <point x="323" y="462" type="curve" smooth="yes"/>
    </contour>
  </outline>
</glyph>
<glyph name="euro.smcp" format="2">
  <advance width="509"/>
  <note>

</note>
  <outline>
    <contour>
      <point x="18" y="368" type="line"/>
      <point x="18" y="294" type="line"/>
      <point x="76" y="287" type="line"/>
      <point x="224" y="287" type="line"/>
      <point x="426" y="293" type="line"/>
      <point x="426" y="369" type="line"/>
      <point x="223" y="376" type="line"/>
      <point x="86" y="376" type="line"/>
    </contour>
    <contour>
      <point x="18" y="267" type="line"/>
      <point x="18" y="190" type="line"/>
      <point x="86" y="183" type="line"/>
      <point x="223" y="183" type="line"/>
      <point x="426" y="190" type="line"/>
      <point x="426" y="267" type="line"/>
      <point x="224" y="274" type="line"/>
      <point x="76" y="274" type="line"/>
    </contour>
    <component base="c.smcp" xOffset="20"/>
  </outline>
</glyph>
<glyph name="k.smcp" format="2">
  <advance width="576"/>
  <note>

</note>
  <anchor x="295" y="-150" name="bottom"/>
  <anchor x="295" y="650" name="top"/>
  <outline>
    <contour>
      <point x="50" y="560" type="line"/>
      <point x="50" y="0" type="line"/>
      <point x="234" y="0" type="line"/>
      <point x="234" y="198" type="line"/>
      <point x="282" y="198" type="line"/>
      <point x="364" y="0" type="line"/>
      <point x="559" y="0" type="line"/>
      <point x="428" y="278" type="line"/>
      <point x="551" y="560" type="line"/>
      <point x="355" y="560" type="line"/>
      <point x="282" y="354" type="line"/>
      <point x="234" y="354" type="line"/>
      <point x="234" y="560" type="line"/>
    </contour>
  </outline>
</glyph>
<glyph name="l.smcp" format="2">
  <advance width="453"/>
  <note>

</note>
  <anchor x="254" y="490" name="altcaron"/>
  <anchor x="258" y="-150" name="bottom"/>
  <anchor x="284" y="350" name="dot"/>
  <anchor x="142" y="650" name="top"/>
  <outline>
    <contour>
      <point x="50" y="560" type="line"/>
      <point x="50" y="147" type="line" smooth="yes"/>
      <point x="50" y="47"/>
      <point x="92" y="0"/>
      <point x="206" y="0" type="curve" smooth="yes"/>
      <point x="427" y="0" type="line"/>
      <point x="427" y="155" type="line"/>
      <point x="267" y="155" type="line" smooth="yes"/>
      <point x="241" y="155"/>
      <point x="234" y="169"/>
      <point x="234" y="186" type="curve" smooth="yes"/>
      <point x="234" y="560" type="line"/>
    </contour>
  </outline>
</glyph>
<glyph name="p.salt" format="2">
  <advance width="580"/>
  <note>

</note>
  <anchor x="290" y="650" name="top"/>
  <outline>
    <contour>
      <point x="44" y="-237" type="line"/>
      <point x="238" y="-237" type="line"/>
      <point x="238" y="17" type="line"/>
      <point x="272.751" y="0.094"/>
      <point x="318.409" y="-8"/>
      <point x="360" y="-8" type="curve" smooth="yes"/>
      <point x="514" y="-8"/>
      <point x="550" y="100"/>
      <point x="550" y="268" type="curve" smooth="yes"/>
      <point x="550" y="458"/>
      <point x="501.048" y="548"/>
      <point x="311" y="548" type="curve" smooth="yes"/>
      <point x="210.226" y="548"/>
      <point x="126.041" y="527.022"/>
      <point x="44" y="483" type="curve"/>
    </contour>
    <contour>
      <point x="291" y="151" type="curve" smooth="yes"/>
      <point x="273" y="151"/>
      <point x="249.705" y="157.897"/>
      <point x="238" y="166" type="curve"/>
      <point x="238" y="383" type="line"/>
      <point x="249" y="387"/>
      <point x="271.179" y="393"/>
      <point x="295" y="393" type="curve" smooth="yes"/>
      <point x="334" y="393"/>
      <point x="356" y="367"/>
      <point x="356" y="258" type="curve" smooth="yes"/>
      <point x="356" y="166"/>
      <point x="322" y="151"/>
    </contour>
  </outline>
</glyph>
<glyph name="p.smcp" format="2">
  <advance width="536"/>
  <note>

</note>
  <anchor x="268" y="650" name="top"/>
  <outline>
    <contour>
      <point x="291" y="296" type="curve" smooth="yes"/>
      <point x="234" y="296" type="line"/>
      <point x="234" y="414" type="line"/>
      <point x="289" y="414" type="line" smooth="yes"/>
      <point x="314" y="414"/>
      <point x="323" y="388"/>
      <point x="323" y="356" type="curve" smooth="yes"/>
      <point x="323" y="322"/>
      <point x="318" y="296"/>
    </contour>
    <contour>
      <point x="50" y="560" type="line"/>
      <point x="50" y="0" type="line"/>
      <point x="234" y="0" type="line"/>
      <point x="234" y="157" type="line"/>
      <point x="255" y="152"/>
      <point x="288" y="140"/>
      <point x="331" y="140" type="curve" smooth="yes"/>
      <point x="409" y="140"/>
      <point x="507" y="163"/>
      <point x="507" y="353" type="curve" smooth="yes"/>
      <point x="507" y="540"/>
      <point x="404" y="560"/>
      <point x="318" y="560" type="curve" smooth="yes"/>
    </contour>
  </outline>
</glyph>
<glyph name="parenleft.smcp" format="2">
  <advance width="370"/>
  <note>

</note>
  <outline>
    <contour>
      <point x="35" y="479"/>
      <point x="35" y="285" type="curve" smooth="yes"/>
      <point x="35" y="83"/>
      <point x="96" y="-24"/>
      <point x="191" y="-118" type="curve"/>
      <point x="352" y="-118" type="line"/>
      <point x="253" y="32"/>
      <point x="219" y="126"/>
      <point x="219" y="285" type="curve" smooth="yes"/>
      <point x="219" y="451"/>
      <point x="273" y="566"/>
      <point x="352" y="686" type="curve"/>
      <point x="191" y="686" type="line"/>
      <point x="102" y="592"/>
    </contour>
  </outline>
</glyph>
<glyph name="perthousand.smcp" format="2">
  <advance width="1121"/>
  <note>

</note>
  <outline>
    <contour>
      <point x="156" y="0" type="line"/>
      <point x="280" y="0" type="line"/>
      <point x="637" y="550" type="line"/>
      <point x="521" y="550" type="line"/>
    </contour>
    <contour>
      <point x="136" y="262" type="curve" smooth="yes"/>
      <point x="217" y="262" type="line" smooth="yes"/>
      <point x="297" y="262"/>
      <point x="329" y="301"/>
      <point x="329" y="365" type="curve" smooth="yes"/>
      <point x="329" y="447" type="line" smooth="yes"/>
      <point x="329" y="511"/>
      <point x="296" y="550"/>
      <point x="218" y="550" type="curve" smooth="yes"/>
      <point x="138" y="550" type="line" smooth="yes"/>
      <point x="57" y="550"/>
      <point x="25" y="511"/>
      <point x="25" y="447" type="curve" smooth="yes"/>
      <point x="25" y="365" type="line" smooth="yes"/>
      <point x="25" y="301"/>
      <point x="58" y="262"/>
    </contour>
    <contour>
      <point x="160" y="374" type="line" smooth="yes"/>
      <point x="142" y="374"/>
      <point x="144" y="387"/>
      <point x="144" y="393" type="curve" smooth="yes"/>
      <point x="144" y="419" type="line" smooth="yes"/>
      <point x="144" y="436"/>
      <point x="154" y="438"/>
      <point x="162" y="438" type="curve" smooth="yes"/>
      <point x="194" y="438" type="line" smooth="yes"/>
      <point x="203" y="438"/>
      <point x="211" y="437"/>
      <point x="211" y="419" type="curve" smooth="yes"/>
      <point x="211" y="393" type="line" smooth="yes"/>
      <point x="211" y="387"/>
      <point x="212" y="374"/>
      <point x="192" y="374" type="curve" smooth="yes"/>
    </contour>
    <contour>
      <point x="579" y="2" type="curve" smooth="yes"/>
      <point x="660" y="2" type="line" smooth="yes"/>
      <point x="741" y="2"/>
      <point x="773" y="41"/>
      <point x="773" y="105" type="curve" smooth="yes"/>
      <point x="773" y="187" type="line" smooth="yes"/>
      <point x="773" y="251"/>
      <point x="740" y="290"/>
      <point x="662" y="290" type="curve" smooth="yes"/>
      <point x="580" y="290" type="line" smooth="yes"/>
      <point x="500" y="290"/>
      <point x="469" y="251"/>
      <point x="469" y="187" type="curve" smooth="yes"/>
      <point x="469" y="105" type="line" smooth="yes"/>
      <point x="469" y="41"/>
      <point x="501" y="2"/>
    </contour>
    <contour>
      <point x="604" y="114" type="line" smooth="yes"/>
      <point x="586" y="114"/>
      <point x="587" y="127"/>
      <point x="587" y="133" type="curve" smooth="yes"/>
      <point x="587" y="159" type="line" smooth="yes"/>
      <point x="587" y="176"/>
      <point x="598" y="178"/>
      <point x="606" y="178" type="curve" smooth="yes"/>
      <point x="637" y="178" type="line" smooth="yes"/>
      <point x="646" y="178"/>
      <point x="654" y="177"/>
      <point x="654" y="159" type="curve" smooth="yes"/>
      <point x="654" y="133" type="line" smooth="yes"/>
      <point x="654" y="127"/>
      <point x="655" y="114"/>
      <point x="635" y="114" type="curve" smooth="yes"/>
    </contour>
    <contour>
      <point x="904" y="2" type="curve" smooth="yes"/>
      <point x="984" y="2" type="line" smooth="yes"/>
      <point x="1065" y="2"/>
      <point x="1097" y="41"/>
      <point x="1097" y="105" type="curve" smooth="yes"/>
      <point x="1097" y="187" type="line" smooth="yes"/>
      <point x="1097" y="251"/>
      <point x="1064" y="290"/>
      <point x="986" y="290" type="curve" smooth="yes"/>
      <point x="905" y="290" type="line" smooth="yes"/>
      <point x="825" y="290"/>
      <point x="793" y="251"/>
      <point x="793" y="187" type="curve" smooth="yes"/>
      <point x="793" y="105" type="line" smooth="yes"/>
      <point x="793" y="41"/>
      <point x="826" y="2"/>
    </contour>
    <contour>
      <point x="928" y="114" type="line" smooth="yes"/>
      <point x="910" y="114"/>
      <point x="911" y="127"/>
      <point x="911" y="133" type="curve" smooth="yes"/>
      <point x="911" y="159" type="line" smooth="yes"/>
      <point x="911" y="176"/>
      <point x="922" y="178"/>
      <point x="930" y="178" type="curve" smooth="yes"/>
      <point x="962" y="178" type="line" smooth="yes"/>
      <point x="971" y="178"/>
      <point x="978" y="177"/>
      <point x="978" y="159" type="curve" smooth="yes"/>
      <point x="978" y="133" type="line" smooth="yes"/>
      <point x="978" y="127"/>
      <point x="980" y="114"/>
      <point x="960" y="114" type="curve" smooth="yes"/>
    </contour>
  </outline>
</glyph>
<glyph name="r.superior" format="2">
  <advance width="322"/>
  <note>

</note>
  <anchor x="110" y="171" name="bottom"/>
  <anchor x="175" y="751" name="top"/>
  <outline>
    <contour>
      <point x="25" y="672" type="line"/>
      <point x="25" y="280" type="line"/>
      <point x="195" y="280" type="line"/>
      <point x="195" y="485" type="line"/>
      <point x="204" y="502"/>
      <point x="227" y="508"/>
      <point x="258" y="508" type="curve" smooth="yes"/>
      <point x="270" y="508"/>
      <point x="290" y="506"/>
      <point x="308" y="505" type="curve"/>
      <point x="308" y="678" type="line"/>
      <point x="298" y="681"/>
      <point x="287" y="682"/>
      <point x="281" y="682" type="curve" smooth="yes"/>
      <point x="241" y="682"/>
      <point x="215.961" y="651.394"/>
      <point x="195" y="621" type="curve"/>
      <point x="158" y="672" type="line"/>
    </contour>
  </outline>
</glyph>
<glyph name="seven.smcp" format="2">
  <advance width="475"/>
  <note>

</note>
  <outline>
    <contour>
      <point x="22" y="560" type="line"/>
      <point x="22" y="386" type="line"/>
      <point x="218" y="386" type="line"/>
      <point x="80" y="0" type="line"/>
      <point x="284" y="0" type="line"/>
      <point x="457" y="492" type="line"/>
      <point x="414" y="560" type="line"/>
    </contour>
  </outline>
</glyph>
<glyph name="tbar.smcp" format="2">
  <advance width="510"/>
  <note>

</note>
  <outline>
    <contour>
      <point x="37" y="325" type="line"/>
      <point x="37" y="242" type="line"/>
      <point x="473" y="242" type="line"/>
      <point x="473" y="325" type="line"/>
    </contour>
    <component base="t.smcp"/>
  </outline>
</glyph>
<glyph name="three.smcp" format="2">
  <advance width="479"/>
  <note>

</note>
  <outline>
    <contour>
      <point x="278" y="-5" type="curve" smooth="yes"/>
      <point x="386" y="-5"/>
      <point x="453" y="46"/>
      <point x="453" y="139" type="curve" smooth="yes"/>
      <point x="453" y="155" type="line" smooth="yes"/>
      <point x="453" y="211"/>
      <point x="439" y="263"/>
      <point x="384" y="281" type="curve"/>
      <point x="438" y="301"/>
      <point x="445" y="339"/>
      <point x="445" y="384" type="curve" smooth="yes"/>
      <point x="445" y="419" type="line" smooth="yes"/>
      <point x="445" y="521"/>
      <point x="379" y="563"/>
      <point x="277" y="565" type="curve" smooth="yes"/>
      <point x="199" y="566"/>
      <point x="116" y="553"/>
      <point x="41" y="540" type="curve"/>
      <point x="41" y="400" type="line"/>
      <point x="202" y="400" type="line" smooth="yes"/>
      <point x="252" y="400"/>
      <point x="263" y="398"/>
      <point x="263" y="378" type="curve" smooth="yes"/>
      <point x="263" y="372" type="line" smooth="yes"/>
      <point x="263" y="357"/>
      <point x="249" y="353"/>
      <point x="212" y="350" type="curve" smooth="yes"/>
      <point x="82" y="341" type="line"/>
      <point x="82" y="220" type="line"/>
      <point x="221" y="214" type="line" smooth="yes"/>
      <point x="257" y="212"/>
      <point x="269" y="203"/>
      <point x="269" y="187" type="curve" smooth="yes"/>
      <point x="269" y="175" type="line" smooth="yes"/>
      <point x="269" y="166"/>
      <point x="263" y="159"/>
      <point x="204" y="159" type="curve" smooth="yes"/>
      <point x="37" y="159" type="line"/>
      <point x="37" y="19" type="line"/>
      <point x="109" y="4"/>
      <point x="192" y="-5"/>
    </contour>
  </outline>
</glyph>
<glyph name="two.tnum" format="2">
  <advance width="609"/>
  <note>

</note>
  <outline>
    <contour>
      <point x="68" y="719" type="curve"/>
      <point x="68" y="565" type="line"/>
      <point x="271" y="565" type="line" smooth="yes"/>
      <point x="322" y="565"/>
      <point x="346" y="547"/>
      <point x="346" y="510" type="curve" smooth="yes"/>
      <point x="346" y="473"/>
      <point x="315" y="437"/>
      <point x="272" y="390" type="curve" smooth="yes"/>
      <point x="56" y="154" type="line"/>
      <point x="56" y="0" type="line"/>
      <point x="560" y="0" type="line"/>
      <point x="560" y="174" type="line"/>
      <point x="312" y="174" type="line"/>
      <point x="421" y="292" type="line" smooth="yes"/>
      <point x="507" y="386"/>
      <point x="540" y="441"/>
      <point x="540" y="539" type="curve" smooth="yes"/>
      <point x="540" y="675"/>
      <point x="484" y="749"/>
      <point x="308" y="749" type="curve" smooth="yes"/>
      <point x="206" y="749"/>
      <point x="131" y="732"/>
    </contour>
  </outline>
</glyph>
<glyph name="v.superior" format="2">
  <advance width="441"/>
  <note>

</note>
  <outline>
    <contour>
      <point x="179" y="672" type="line"/>
      <point x="3" y="672" type="line"/>
      <point x="118" y="280" type="line"/>
      <point x="314" y="280" type="line"/>
      <point x="437" y="672" type="line"/>
      <point x="264" y="672" type="line"/>
      <point x="220" y="431" type="line"/>
    </contour>
  </outline>
</glyph>
<glyph name="x.smcp" format="2">
  <advance width="591"/>
  <note>

</note>
  <anchor x="294" y="-150" name="bottom"/>
  <anchor x="294" y="650" name="top"/>
  <outline>
    <contour>
      <point x="216" y="321" type="line"/>
      <point x="11" y="0" type="line"/>
      <point x="214" y="0" type="line"/>
      <point x="310" y="175" type="line"/>
    </contour>
    <contour>
      <point x="379" y="560" type="line"/>
      <point x="277" y="375" type="line"/>
      <point x="372" y="233" type="line"/>
      <point x="582" y="560" type="line"/>
    </contour>
    <contour>
      <point x="211" y="560" type="line"/>
      <point x="8" y="560" type="line"/>
      <point x="375" y="0" type="line"/>
      <point x="578" y="0" type="line"/>
    </contour>
  </outline>
</glyph>
<glyph name="y.smcp" format="2">
  <advance width="533"/>
  <note>

</note>
  <anchor x="270" y="-150" name="bottom"/>
  <anchor x="270" y="650" name="top"/>
  <outline>
    <contour>
      <point x="199" y="560" type="line"/>
      <point x="8" y="560" type="line"/>
      <point x="175" y="150" type="line"/>
      <point x="175" y="0" type="line"/>
      <point x="359" y="0" type="line"/>
      <point x="359" y="150" type="line"/>
      <point x="525" y="560" type="line"/>
      <point x="342" y="560" type="line"/>
      <point x="270" y="326" type="line"/>
    </contour>
  </outline>
</glyph>
